<svg width="64" height="64" viewBox="0 0 64 64" fill="none" xmlns="http://www.w3.org/2000/svg">
  <!-- Community management hub icon -->
  <!-- Building body -->
  <rect x="14" y="24" width="36" height="32" rx="3" fill="#C1DBF6"/>
  <!-- Roof -->
  <path d="M10 26L32 10L54 26H10Z" fill="#FBDBD0"/>
  <path d="M10 26L32 10L54 26" stroke="#374874" stroke-width="2" stroke-linecap="round" stroke-linejoin="round"/>
  <!-- Building outline -->
  <rect x="14" y="26" width="36" height="30" rx="2" stroke="#374874" stroke-width="1.5"/>
  <!-- Windows -->
  <rect x="19" y="31" width="8" height="7" rx="1" fill="white" stroke="#374874" stroke-width="1"/>
  <rect x="37" y="31" width="8" height="7" rx="1" fill="white" stroke="#374874" stroke-width="1"/>
  <rect x="19" y="42" width="8" height="7" rx="1" fill="white" stroke="#374874" stroke-width="1"/>
  <rect x="37" y="42" width="8" height="7" rx="1" fill="white" stroke="#374874" stroke-width="1"/>
  <!-- Door -->
  <rect x="28" y="44" width="8" height="12" rx="1" fill="#374874"/>
  <circle cx="34" cy="50" r="1" fill="#FBDBD0"/>
  <!-- People badge -->
  <circle cx="50" cy="16" r="9" fill="#374874"/>
  <circle cx="47" cy="14" r="3" fill="white"/>
  <path d="M43 20c0-2.2 1.8-4 4-4" stroke="white" stroke-width="1.5" stroke-linecap="round"/>
  <circle cx="53" cy="14" r="2.5" fill="#FBDBD0"/>
  <path d="M50 19c1.5-.5 3-.2 4 1" stroke="#FBDBD0" stroke-width="1.2" stroke-linecap="round"/>
</svg>
