<svg width="64" height="64" viewBox="0 0 64 64" fill="none" xmlns="http://www.w3.org/2000/svg">
  <!-- Chat bubble / feedback icon -->
  <path d="M10 14C10 12.8954 10.8954 12 12 12H44C45.1046 12 46 12.8954 46 14V36C46 37.1046 45.1046 38 44 38H22L14 46V38H12C10.8954 38 10 37.1046 10 36V14Z" fill="#C1DBF6"/>
  <rect x="18" y="20" width="20" height="3" rx="1.5" fill="#374874"/>
  <rect x="18" y="27" width="14" height="3" rx="1.5" fill="#374874" opacity="0.5"/>
  <path d="M30 34C30 32.8954 30.8954 32 32 32H52C53.1046 32 54 32.8954 54 34V50C54 51.1046 53.1046 52 52 52H50V58L44 52H32C30.8954 52 30 51.1046 30 50V34Z" fill="#FBDBD0"/>
  <rect x="36" y="38" width="12" height="3" rx="1.5" fill="#374874" opacity="0.6"/>
  <rect x="36" y="44" width="8" height="3" rx="1.5" fill="#374874" opacity="0.3"/>
</svg>
